<?xml version="1.0" ?><svg fill="none" height="24" viewBox="0 0 24 24" width="24" xmlns="http://www.w3.org/2000/svg"><path clip-rule="evenodd" d="M10.9754 1.27452C11.5522 0.734726 12.4487 0.734725 13.0255 1.27452L15.351 3.45115C15.4395 3.53396 15.5551 3.58182 15.6762 3.58582L18.8597 3.69115C19.6492 3.71727 20.2832 4.35122 20.3093 5.14073L20.4146 8.32428C20.4186 8.44539 20.4665 8.56094 20.5493 8.64941L22.7259 10.975C23.2657 11.5517 23.2657 12.4483 22.7259 13.025L20.5493 15.3506C20.4665 15.4391 20.4186 15.5546 20.4146 15.6757L20.3093 18.8593C20.2832 19.6488 19.6492 20.2827 18.8597 20.3089L15.6762 20.4142C15.5551 20.4182 15.4395 20.466 15.351 20.5489L13.0255 22.7255C12.4487 23.2653 11.5522 23.2653 10.9754 22.7255L8.64985 20.5489C8.56138 20.466 8.44584 20.4182 8.32472 20.4142L5.14117 20.3089C4.35167 20.2827 3.71772 19.6488 3.6916 18.8593L3.58627 15.6757C3.58226 15.5546 3.5344 15.4391 3.45159 15.3506L1.27496 13.025C0.735169 12.4483 0.735168 11.5517 1.27496 10.975L3.45159 8.64941C3.5344 8.56094 3.58226 8.44539 3.58627 8.32428L3.6916 5.14073C3.71772 4.35122 4.35167 3.71727 5.14117 3.69115L8.32472 3.58582C8.44584 3.58182 8.56138 3.53396 8.64985 3.45115L10.9754 1.27452ZM12.3421 2.00462C12.1499 1.82469 11.851 1.82469 11.6588 2.00462L9.33319 4.18125C9.06776 4.42968 8.72114 4.57325 8.35779 4.58528L5.17424 4.69061C4.91107 4.69931 4.69976 4.91063 4.69105 5.1738L4.58572 8.35734C4.5737 8.7207 4.43012 9.06732 4.18169 9.33275L2.00507 11.6583C1.82513 11.8506 1.82513 12.1494 2.00507 12.3417L4.18169 14.6673C4.43012 14.9327 4.5737 15.2793 4.58572 15.6427L4.69105 18.8262C4.69976 19.0894 4.91107 19.3007 5.17424 19.3094L8.35779 19.4147C8.72114 19.4268 9.06776 19.5703 9.33319 19.8188L11.6588 21.9954C11.851 22.1753 12.1499 22.1753 12.3421 21.9954L14.6677 19.8188C14.9331 19.5703 15.2798 19.4268 15.6431 19.4147L18.8267 19.3094C19.0898 19.3007 19.3011 19.0894 19.3098 18.8262L19.4152 15.6427C19.4272 15.2793 19.5708 14.9327 19.8192 14.6673L21.9958 12.3417C22.1758 12.1494 22.1758 11.8506 21.9958 11.6583L19.8192 9.33275C19.5708 9.06732 19.4272 8.7207 19.4152 8.35734L19.3098 5.1738C19.3011 4.91063 19.0898 4.69931 18.8267 4.69061L15.6431 4.58528C15.2798 4.57325 14.9331 4.42968 14.6677 4.18125L12.3421 2.00462Z" fill="black" fill-rule="evenodd"/><path clip-rule="evenodd" d="M10.1991 6.65463C11.8911 7.82768 13 9.78396 13 12C13 14.216 11.8911 16.1723 10.1991 17.3454C10.6159 17.4464 11.0515 17.5 11.5 17.5C14.5376 17.5 17 15.0376 17 12C17 8.96243 14.5376 6.5 11.5 6.5C11.0515 6.5 10.6159 6.55359 10.1991 6.65463ZM8.79144 6.08962C9.6166 5.7109 10.5344 5.5 11.5 5.5C15.0899 5.5 18 8.41015 18 12C18 15.5899 15.0899 18.5 11.5 18.5C10.5344 18.5 9.6166 18.2891 8.79144 17.9104C8.61384 17.8289 8.5 17.6514 8.5 17.456C8.5 17.2605 8.61384 17.083 8.79144 17.0015C10.686 16.132 12 14.2189 12 12C12 9.78106 10.686 7.86799 8.79144 6.99847C8.61384 6.91695 8.5 6.73945 8.5 6.54404C8.5 6.34863 8.61384 6.17113 8.79144 6.08962Z" fill="black" fill-rule="evenodd"/></svg>